<?xml version="1.0" standalone="no"?>
<!DOCTYPE svg PUBLIC "-//W3C//DTD SVG 20010904//EN"
 "http://www.w3.org/TR/2001/REC-SVG-20010904/DTD/svg10.dtd">
<svg version="1.0" xmlns="http://www.w3.org/2000/svg"
 width="684.000000pt" height="672.000000pt" viewBox="0 0 684.000000 672.000000"
 preserveAspectRatio="xMidYMid meet">

<g transform="translate(0.000000,672.000000) scale(0.100000,-0.100000)"
fill="#000000" stroke="none">
<path d="M3250 6633 c-167 -11 -314 -28 -436 -48 -649 -112 -1137 -390 -1314
-750 -75 -151 -90 -266 -66 -482 9 -78 16 -147 16 -153 0 -5 23 -10 53 -10
l52 0 -41 -23 c-268 -154 -422 -372 -438 -620 l-5 -68 -71 -35 c-90 -43 -177
-125 -215 -201 -22 -45 -29 -76 -33 -140 -7 -131 23 -199 161 -371 l67 -82
-48 -24 c-170 -86 -395 -271 -488 -402 -54 -75 -100 -171 -115 -241 -11 -49
-16 -55 -64 -82 -28 -16 -66 -42 -84 -57 -41 -34 -81 -116 -81 -164 0 -44 732
-2317 768 -2384 30 -56 87 -106 158 -138 l49 -23 2330 0 2330 0 67 33 c82 40
138 101 166 180 52 140 735 2271 739 2303 9 63 -21 132 -82 187 -29 27 -73 59
-96 70 -38 19 -44 27 -56 74 -19 74 -65 170 -117 242 -86 120 -265 274 -423
363 -35 19 -63 38 -63 43 0 5 18 39 39 77 22 37 61 120 87 183 46 111 48 119
49 215 0 91 -3 106 -29 160 -54 110 -174 204 -301 236 l-48 12 7 58 c12 122
-27 291 -96 407 -18 31 -67 91 -109 134 -52 54 -70 78 -58 78 20 0 23 12 39
162 15 148 12 246 -10 333 -131 512 -817 881 -1755 945 -140 9 -330 11 -435 3z
m1375 -1464 c11 -32 74 -98 116 -119 20 -11 83 -29 140 -40 318 -64 482 -268
404 -499 -35 -105 -18 -201 48 -269 48 -51 96 -71 205 -86 117 -16 145 -30
137 -66 -26 -104 -138 -300 -197 -343 -35 -26 -73 -88 -83 -135 -4 -18 -2 -55
5 -81 19 -79 56 -113 208 -191 162 -82 267 -150 348 -225 l59 -54 -35 7 c-19
4 -82 7 -140 6 -81 0 -119 -5 -167 -22 l-63 -22 -62 22 c-91 32 -276 32 -365
0 l-63 -22 -62 22 c-91 32 -276 32 -365 0 l-63 -22 -62 22 c-91 32 -276 32
-365 0 l-63 -22 -62 22 c-90 32 -275 32 -365 0 l-63 -22 -62 22 c-89 31 -276
31 -362 0 l-59 -22 -71 23 c-98 31 -273 30 -360 -1 l-59 -22 -71 22 c-100 32
-252 32 -352 0 l-71 -22 -59 22 c-87 31 -262 32 -360 1 l-71 -23 -59 22 c-87
31 -262 32 -360 1 l-71 -23 -59 21 c-64 23 -227 31 -314 16 l-45 -8 57 54 c94
91 243 182 456 280 91 43 133 86 153 160 23 85 -2 139 -123 266 -88 94 -208
244 -208 261 0 19 48 40 113 49 150 21 248 132 233 264 -20 181 -21 173 13
241 46 94 125 162 266 231 147 72 195 127 195 223 0 22 3 54 6 71 l7 31 1333
0 1333 0 6 -21z m-3647 -2614 c120 -79 300 -79 418 1 l36 25 47 -29 c68 -43
116 -56 209 -56 76 0 88 3 160 40 l77 39 71 -36 c126 -65 263 -60 375 12 l47
30 50 -32 c52 -32 141 -59 197 -59 51 0 147 29 198 60 l47 29 48 -29 c116 -72
251 -76 377 -11 l72 37 34 -23 c44 -30 149 -63 203 -63 61 0 155 27 201 57 49
32 51 32 100 0 46 -30 141 -57 200 -57 59 0 142 25 197 59 l48 30 50 -31 c50
-31 140 -58 195 -58 51 0 147 29 198 60 l47 29 48 -29 c26 -16 78 -37 116 -47
59 -14 79 -15 138 -5 68 12 136 40 170 69 16 14 22 13 65 -15 70 -43 118 -56
210 -56 76 0 89 3 160 40 l78 39 78 -39 c73 -38 82 -40 165 -40 55 1 103 7
130 17 23 9 42 12 42 7 0 -4 -146 -460 -324 -1012 l-324 -1003 -2226 -3 -2225
-2 -40 122 c-21 68 -168 522 -325 1009 -157 487 -286 888 -286 891 0 3 18 -1
40 -8 106 -36 229 -23 320 35 25 16 46 30 48 30 1 1 19 -10 40 -24z"/>
<path d="M2135 2420 c-192 -39 -346 -178 -411 -370 -29 -85 -25 -254 7 -340
80 -210 254 -341 474 -357 209 -14 419 105 510 290 36 73 65 183 65 247 0 64
-29 174 -65 247 -101 206 -353 328 -580 283z"/>
<path d="M4545 2420 c-267 -54 -452 -299 -432 -571 30 -389 441 -615 789 -432
315 165 379 597 127 851 -124 126 -315 186 -484 152z"/>
<path d="M2685 1320 l-129 -130 39 -41 c59 -61 205 -181 291 -239 296 -201
624 -252 913 -144 161 60 394 229 500 363 l30 38 -127 109 c-70 61 -133 114
-140 118 -8 5 -36 -16 -81 -62 -165 -169 -328 -252 -496 -252 -180 0 -389 105
-601 303 l-71 66 -128 -129z"/>
</g>
</svg>
